<?xml version="1.0" encoding="UTF-8"?>
<!DOCTYPE svg PUBLIC "-//W3C//DTD SVG 1.1//EN" "http://www.w3.org/Graphics/SVG/1.1/DTD/svg11.dtd">
<svg xmlns="http://www.w3.org/2000/svg" version="1.1" width="1876px" height="258px" style="shape-rendering:geometricPrecision; text-rendering:geometricPrecision; image-rendering:optimizeQuality; fill-rule:evenodd; clip-rule:evenodd" xmlns:xlink="http://www.w3.org/1999/xlink">
<g><path style="opacity:0.973" fill="#000000" d="M 113.5,-0.5 C 123.5,-0.5 133.5,-0.5 143.5,-0.5C 179.635,3.56456 208.635,20.0646 230.5,49C 219.892,57.9748 208.892,66.4748 197.5,74.5C 174.415,45.1886 144.415,34.3553 107.5,42C 73.1943,51.9741 52.3609,74.4741 45,109.5C 39.7778,139.278 46.4445,165.945 65,189.5C 90.48,214.672 120.647,222.505 155.5,213C 186.211,203.087 204.545,182.254 210.5,150.5C 185.833,150.5 161.167,150.5 136.5,150.5C 136.5,137.167 136.5,123.833 136.5,110.5C 176.167,110.5 215.833,110.5 255.5,110.5C 260.849,160.932 243.849,201.765 204.5,233C 181.798,248.421 156.798,256.587 129.5,257.5C 124.167,257.5 118.833,257.5 113.5,257.5C 59.192,249.569 23.0253,219.569 5,167.5C 2.61286,158.807 0.779523,150.14 -0.5,141.5C -0.5,133.167 -0.5,124.833 -0.5,116.5C 9.83223,50.5015 47.8322,11.5015 113.5,-0.5 Z"/></g>
<g><path style="opacity:0.97" fill="#000000" d="M 432.5,257.5 C 424.167,257.5 415.833,257.5 407.5,257.5C 357.919,249.089 327.086,220.422 315,171.5C 313.977,165.207 313.311,158.874 313,152.5C 312.5,103.501 312.333,54.5011 312.5,5.5C 326.167,5.5 339.833,5.5 353.5,5.5C 353.333,56.8344 353.5,108.168 354,159.5C 358.515,185.677 373.015,203.844 397.5,214C 428.577,223.275 454.411,215.441 475,190.5C 483.319,178.877 487.652,165.877 488,151.5C 488.5,102.834 488.667,54.1678 488.5,5.5C 501.833,5.5 515.167,5.5 528.5,5.5C 528.667,56.1678 528.5,106.834 528,157.5C 519.776,213.554 487.943,246.887 432.5,257.5 Z"/></g>
<g><path style="opacity:0.976" fill="#010101" d="M 591.5,5.5 C 647.833,5.5 704.167,5.5 760.5,5.5C 760.5,18.8333 760.5,32.1667 760.5,45.5C 717.5,45.5 674.5,45.5 631.5,45.5C 631.5,66.5 631.5,87.5 631.5,108.5C 671.167,108.5 710.833,108.5 750.5,108.5C 750.5,121.833 750.5,135.167 750.5,148.5C 710.833,148.5 671.167,148.5 631.5,148.5C 631.5,169.5 631.5,190.5 631.5,211.5C 674.5,211.5 717.5,211.5 760.5,211.5C 760.5,225.167 760.5,238.833 760.5,252.5C 704.167,252.5 647.833,252.5 591.5,252.5C 591.5,170.167 591.5,87.8333 591.5,5.5 Z"/></g>
<g><path style="opacity:0.966" fill="#000000" d="M 825.5,5.5 C 863.501,5.33335 901.501,5.50001 939.5,6C 980.908,13.4079 1004.74,37.9079 1011,79.5C 1013.01,122.48 993.841,151.313 953.5,166C 979.167,194.333 1004.83,222.667 1030.5,251C 1013.17,251.667 995.833,251.667 978.5,251C 953.465,224.3 928.798,197.3 904.5,170C 891.838,169.5 879.171,169.333 866.5,169.5C 866.5,196.833 866.5,224.167 866.5,251.5C 852.833,251.5 839.167,251.5 825.5,251.5C 825.5,169.5 825.5,87.5 825.5,5.5 Z M 866.5,46.5 C 891.885,46.0376 917.218,46.5376 942.5,48C 966.583,58.235 975.416,76.0683 969,101.5C 963.746,113.755 954.913,122.255 942.5,127C 917.218,128.462 891.885,128.962 866.5,128.5C 866.5,101.167 866.5,73.8333 866.5,46.5 Z"/></g>
<g><path style="opacity:0.99" fill="#010101" d="M 1085.5,5.5 C 1098.5,5.5 1111.5,5.5 1124.5,5.5C 1124.5,74.1667 1124.5,142.833 1124.5,211.5C 1160.5,211.5 1196.5,211.5 1232.5,211.5C 1232.5,224.833 1232.5,238.167 1232.5,251.5C 1183.5,251.5 1134.5,251.5 1085.5,251.5C 1085.5,169.5 1085.5,87.5 1085.5,5.5 Z"/></g>
<g><path style="opacity:0.972" fill="#000000" d="M 1361.5,5.5 C 1376.41,5.17604 1391.24,5.50937 1406,6.5C 1439,88.0037 1471.5,169.67 1503.5,251.5C 1489.15,251.833 1474.82,251.499 1460.5,250.5C 1452.64,232.248 1444.97,213.915 1437.5,195.5C 1401.5,194.333 1365.5,194.167 1329.5,195C 1321.64,213.586 1313.97,232.253 1306.5,251C 1292.17,251.5 1277.84,251.667 1263.5,251.5C 1295.97,169.432 1328.63,87.4324 1361.5,5.5 Z M 1382.5,58.5 C 1383.79,59.0577 1384.62,60.0577 1385,61.5C 1396.98,92.4294 1409.14,123.263 1421.5,154C 1396.16,154.833 1370.83,154.666 1345.5,153.5C 1358.13,121.913 1370.46,90.2463 1382.5,58.5 Z"/></g>
<g><path style="opacity:0.982" fill="#000000" d="M 1549.5,5.5 C 1562.83,5.5 1576.17,5.5 1589.5,5.5C 1589.5,87.5 1589.5,169.5 1589.5,251.5C 1576.17,251.5 1562.83,251.5 1549.5,251.5C 1549.5,169.5 1549.5,87.5 1549.5,5.5 Z"/></g>
<g><path style="opacity:0.979" fill="#000000" d="M 1875.5,5.5 C 1875.5,87.5 1875.5,169.5 1875.5,251.5C 1861.5,251.667 1847.5,251.5 1833.5,251C 1789,191.167 1744.5,131.333 1700,71.5C 1699.5,131.499 1699.33,191.499 1699.5,251.5C 1686.17,251.5 1672.83,251.5 1659.5,251.5C 1659.5,169.5 1659.5,87.5 1659.5,5.5C 1673.5,5.33343 1687.5,5.50009 1701.5,6C 1746,65.8333 1790.5,125.667 1835,185.5C 1835.5,125.501 1835.67,65.5009 1835.5,5.5C 1848.83,5.5 1862.17,5.5 1875.5,5.5 Z"/></g>
</svg>
